<svg width="460" height="460" viewBox="0 0 460 460" fill="none" xmlns="http://www.w3.org/2000/svg">
<circle cx="230" cy="230" r="230" fill="white" fill-opacity="0.7"/>
<path d="M217.08 12V5.64H228.16V34H221.04V12H217.08ZM232.599 28.52C233.399 27.8533 233.826 27.5067 233.879 27.48C236.439 25.3467 238.466 23.6133 239.959 22.28C241.452 20.92 242.706 19.52 243.719 18.08C244.732 16.64 245.239 15.2667 245.239 13.96C245.239 12.8667 244.986 12.0267 244.479 11.44C243.999 10.8533 243.266 10.56 242.279 10.56C240.252 10.56 239.199 12.0133 239.119 14.92H232.519C232.572 12.6533 233.052 10.76 233.959 9.24C234.892 7.72 236.106 6.6 237.599 5.88C239.119 5.16 240.799 4.8 242.639 4.8C244.772 4.8 246.546 5.18667 247.959 5.96C249.399 6.70667 250.452 7.73333 251.119 9.04C251.812 10.3467 252.159 11.8 252.159 13.4C252.159 16.12 251.199 18.6667 249.279 21.04C247.359 23.3867 244.892 25.72 241.879 28.04H252.679V33.6H232.599V28.52Z" fill="#820000"/>
<path d="M331.14 39.22V36.73H336.78V58H334.02V39.22H331.14Z" fill="black"/>
<path d="M406.53 127.81C409.07 125.77 411.06 124.1 412.5 122.8C413.94 121.5 415.15 120.15 416.13 118.75C417.13 117.33 417.63 115.95 417.63 114.61C417.63 113.37 417.31 112.38 416.67 111.64C416.03 110.88 415.02 110.5 413.64 110.5C412.28 110.5 411.22 110.93 410.46 111.79C409.72 112.63 409.32 113.76 409.26 115.18H406.62C406.7 112.94 407.38 111.21 408.66 109.99C409.94 108.77 411.59 108.16 413.61 108.16C415.67 108.16 417.3 108.73 418.5 109.87C419.72 110.99 420.33 112.53 420.33 114.49C420.33 116.09 419.83 117.67 418.83 119.23C417.85 120.79 416.73 122.16 415.47 123.34C414.21 124.5 412.6 125.88 410.64 127.48H420.96V129.76H406.53V127.81Z" fill="black"/>
<path d="M434.04 227.04C434.147 224.187 435.08 221.987 436.84 220.44C438.6 218.893 440.987 218.12 444 218.12C446 218.12 447.707 218.467 449.12 219.16C450.56 219.853 451.64 220.8 452.36 222C453.107 223.2 453.48 224.547 453.48 226.04C453.48 227.8 453.04 229.24 452.16 230.36C451.28 231.453 450.253 232.2 449.08 232.6V232.76C450.6 233.267 451.8 234.107 452.68 235.28C453.56 236.453 454 237.96 454 239.8C454 241.453 453.613 242.92 452.84 244.2C452.093 245.453 450.987 246.44 449.52 247.16C448.08 247.88 446.36 248.24 444.36 248.24C441.16 248.24 438.6 247.453 436.68 245.88C434.787 244.307 433.787 241.933 433.68 238.76H440.32C440.347 239.933 440.68 240.867 441.32 241.56C441.96 242.227 442.893 242.56 444.12 242.56C445.16 242.56 445.96 242.267 446.52 241.68C447.107 241.067 447.4 240.267 447.4 239.28C447.4 238 446.987 237.08 446.16 236.52C445.36 235.933 444.067 235.64 442.28 235.64H441V230.08H442.28C443.64 230.08 444.733 229.853 445.56 229.4C446.413 228.92 446.84 228.08 446.84 226.88C446.84 225.92 446.573 225.173 446.04 224.64C445.507 224.107 444.773 223.84 443.84 223.84C442.827 223.84 442.067 224.147 441.56 224.76C441.08 225.373 440.8 226.133 440.72 227.04H434.04Z" fill="#820000"/>
<path d="M406.2 339.17V337.1L416.73 322.52H420V336.8H423V339.17H420V344H417.3V339.17H406.2ZM417.42 325.37L409.35 336.8H417.42V325.37Z" fill="black"/>
<path d="M341.69 403.68H331.16V410.52C331.62 409.88 332.3 409.36 333.2 408.96C334.1 408.54 335.07 408.33 336.11 408.33C337.77 408.33 339.12 408.68 340.16 409.38C341.2 410.06 341.94 410.95 342.38 412.05C342.84 413.13 343.07 414.28 343.07 415.5C343.07 416.94 342.8 418.23 342.26 419.37C341.72 420.51 340.89 421.41 339.77 422.07C338.67 422.73 337.3 423.06 335.66 423.06C333.56 423.06 331.86 422.52 330.56 421.44C329.26 420.36 328.47 418.92 328.19 417.12H330.86C331.12 418.26 331.67 419.15 332.51 419.79C333.35 420.43 334.41 420.75 335.69 420.75C337.27 420.75 338.46 420.28 339.26 419.34C340.06 418.38 340.46 417.12 340.46 415.56C340.46 414 340.06 412.8 339.26 411.96C338.46 411.1 337.28 410.67 335.72 410.67C334.66 410.67 333.73 410.93 332.93 411.45C332.15 411.95 331.58 412.64 331.22 413.52H328.64V401.28H341.69V403.68Z" fill="black"/>
<path d="M236.24 433.68C236.027 432.693 235.653 431.96 235.12 431.48C234.587 430.973 233.827 430.72 232.84 430.72C231.32 430.72 230.227 431.387 229.56 432.72C228.893 434.027 228.547 436.107 228.52 438.96C229.107 438.027 229.947 437.293 231.04 436.76C232.16 436.227 233.387 435.96 234.72 435.96C237.333 435.96 239.427 436.787 241 438.44C242.6 440.093 243.4 442.4 243.4 445.36C243.4 447.307 243 449.013 242.2 450.48C241.427 451.947 240.28 453.093 238.76 453.92C237.267 454.747 235.493 455.16 233.44 455.16C229.333 455.16 226.48 453.88 224.88 451.32C223.28 448.733 222.48 445.027 222.48 440.2C222.48 435.133 223.32 431.373 225 428.92C226.707 426.44 229.427 425.2 233.16 425.2C235.16 425.2 236.84 425.6 238.2 426.4C239.587 427.173 240.627 428.2 241.32 429.48C242.04 430.76 242.467 432.16 242.6 433.68H236.24ZM233.08 441.36C231.933 441.36 230.973 441.707 230.2 442.4C229.453 443.067 229.08 444.027 229.08 445.28C229.08 446.56 229.427 447.56 230.12 448.28C230.84 449 231.853 449.36 233.16 449.36C234.333 449.36 235.253 449.013 235.92 448.32C236.613 447.6 236.96 446.627 236.96 445.4C236.96 444.147 236.627 443.16 235.96 442.44C235.293 441.72 234.333 441.36 233.08 441.36Z" fill="#820000"/>
<path d="M126.21 402.44L117.87 422H114.87L123.54 402.68H111.99V400.37H126.21V402.44Z" fill="black"/>
<path d="M39.82 332.48C38.7 332.04 37.84 331.4 37.24 330.56C36.64 329.72 36.34 328.71 36.34 327.53C36.34 326.43 36.61 325.45 37.15 324.59C37.69 323.71 38.49 323.02 39.55 322.52C40.63 322 41.93 321.74 43.45 321.74C44.97 321.74 46.26 322 47.32 322.52C48.4 323.02 49.21 323.71 49.75 324.59C50.31 325.47 50.59 326.45 50.59 327.53C50.59 328.69 50.28 329.7 49.66 330.56C49.04 331.42 48.19 332.06 47.11 332.48C48.37 332.88 49.36 333.56 50.08 334.52C50.8 335.48 51.16 336.65 51.16 338.03C51.16 339.37 50.84 340.54 50.2 341.54C49.56 342.52 48.65 343.28 47.47 343.82C46.31 344.34 44.97 344.6 43.45 344.6C41.93 344.6 40.59 344.34 39.43 343.82C38.29 343.28 37.4 342.52 36.76 341.54C36.12 340.54 35.8 339.37 35.8 338.03C35.8 336.63 36.16 335.45 36.88 334.49C37.6 333.53 38.58 332.86 39.82 332.48ZM43.45 324.02C42.09 324.02 41 324.35 40.18 325.01C39.38 325.67 38.98 326.62 38.98 327.86C38.98 328.98 39.39 329.89 40.21 330.59C41.05 331.27 42.13 331.61 43.45 331.61C44.79 331.61 45.87 331.26 46.69 330.56C47.53 329.86 47.95 328.95 47.95 327.83C47.95 326.61 47.54 325.67 46.72 325.01C45.92 324.35 44.83 324.02 43.45 324.02ZM43.45 333.68C41.97 333.68 40.76 334.04 39.82 334.76C38.88 335.46 38.41 336.52 38.41 337.94C38.41 339.28 38.86 340.35 39.76 341.15C40.68 341.93 41.91 342.32 43.45 342.32C44.99 342.32 46.21 341.92 47.11 341.12C48.01 340.32 48.46 339.26 48.46 337.94C48.46 336.54 48 335.48 47.08 334.76C46.16 334.04 44.95 333.68 43.45 333.68Z" fill="black"/>
<path d="M13.16 237.44C13.56 239.547 14.7867 240.6 16.84 240.6C18.2533 240.6 19.2533 239.973 19.84 238.72C20.4267 237.467 20.72 235.427 20.72 232.6C20.1333 233.427 19.3333 234.067 18.32 234.52C17.3067 234.973 16.1733 235.2 14.92 235.2C12.3067 235.2 10.1733 234.4 8.52 232.8C6.89333 231.2 6.08 228.92 6.08 225.96C6.08 222.973 6.97333 220.6 8.76 218.84C10.5467 217.08 13 216.2 16.12 216.2C20.0667 216.2 22.8133 217.427 24.36 219.88C25.9333 222.307 26.72 225.907 26.72 230.68C26.72 234.147 26.4133 237 25.8 239.24C25.1867 241.48 24.1467 243.187 22.68 244.36C21.2133 245.533 19.2267 246.12 16.72 246.12C14.6667 246.12 12.9067 245.72 11.44 244.92C10 244.12 8.89333 243.067 8.12 241.76C7.37333 240.453 6.94667 239.013 6.84 237.44H13.16ZM16.48 229.8C17.6 229.8 18.4933 229.467 19.16 228.8C19.8267 228.107 20.16 227.173 20.16 226C20.16 224.72 19.8133 223.733 19.12 223.04C18.4267 222.347 17.4933 222 16.32 222C15.1467 222 14.2133 222.36 13.52 223.08C12.8533 223.773 12.52 224.733 12.52 225.96C12.52 227.107 12.8533 228.04 13.52 228.76C14.2133 229.453 15.2 229.8 16.48 229.8Z" fill="#820000"/>
<path d="M37.14 111.22V108.73H42.78V130H40.02V111.22H37.14ZM55.0294 108.25C52.2294 108.25 50.2694 109.21 49.1494 111.13C48.0294 113.05 47.4694 115.71 47.4694 119.11C47.4694 122.51 48.0294 125.18 49.1494 127.12C50.2694 129.04 52.2294 130 55.0294 130C57.8094 130 59.7594 129.04 60.8794 127.12C61.9994 125.18 62.5594 122.51 62.5594 119.11C62.5594 115.71 61.9994 113.05 60.8794 111.13C59.7594 109.21 57.8094 108.25 55.0294 108.25ZM55.0294 110.74C56.3694 110.74 57.3894 111.11 58.0894 111.85C58.8094 112.57 59.2794 113.53 59.4994 114.73C59.7394 115.93 59.8594 117.39 59.8594 119.11C59.8594 120.85 59.7394 122.32 59.4994 123.52C59.2794 124.72 58.8094 125.69 58.0894 126.43C57.3894 127.15 56.3694 127.51 55.0294 127.51C53.6694 127.51 52.6294 127.15 51.9094 126.43C51.2094 125.69 50.7394 124.72 50.4994 123.52C50.2794 122.32 50.1694 120.85 50.1694 119.11C50.1694 117.39 50.2794 115.93 50.4994 114.73C50.7394 113.53 51.2094 112.57 51.9094 111.85C52.6294 111.11 53.6694 110.74 55.0294 110.74Z" fill="black"/>
<path d="M108.14 39.22V36.73H113.78V58H111.02V39.22H108.14ZM117.749 39.22V36.73H123.389V58H120.629V39.22H117.749Z" fill="black"/>
</svg>
